<svg width="146" height="48" viewBox="0 0 146 48" fill="none" xmlns="http://www.w3.org/2000/svg">
<path d="M7.472 47C6.10667 47 4.89067 46.68 3.824 46.04C2.75733 45.4 1.904 44.5467 1.264 43.48C0.666667 42.3707 0.368 41.176 0.368 39.896C0.368 38.5307 0.688 37.336 1.328 36.312C2.01067 35.2453 2.992 34.2853 4.272 33.432L19.312 23.896C19.952 23.512 20.3573 23.128 20.528 22.744C20.7413 22.36 20.848 21.9547 20.848 21.528C20.848 21.016 20.6347 20.5467 20.208 20.12C19.7813 19.6507 19.2267 19.416 18.544 19.416H1.968V14.36H20.336C21.6587 14.36 22.832 14.68 23.856 15.32C24.9227 15.96 25.7547 16.8347 26.352 17.944C26.992 19.0107 27.312 20.184 27.312 21.464C27.312 22.7867 26.9707 24.0027 26.288 25.112C25.648 26.1787 24.7093 27.1173 23.472 27.928L8.432 37.464C7.792 37.848 7.36533 38.232 7.152 38.616C6.98133 39 6.896 39.4053 6.896 39.832C6.896 40.344 7.10933 40.8347 7.536 41.304C7.96267 41.7307 8.53867 41.944 9.264 41.944H26.736V47H7.472ZM40.1595 47.832C37.4288 47.832 34.9968 47.1707 32.8635 45.848C30.7302 44.5253 29.0448 42.6907 27.8075 40.344C26.6128 37.9973 26.0155 35.352 26.0155 32.408C26.0155 29.6773 26.4635 27.16 27.3595 24.856C28.2555 22.552 29.5142 20.568 31.1355 18.904C32.7568 17.1973 34.6555 15.896 36.8315 15C39.0502 14.0613 41.4395 13.592 43.9995 13.592C46.0475 13.592 48.0315 13.9333 49.9515 14.616C51.8715 15.256 53.5995 16.2587 55.1355 17.624C56.6715 18.9467 57.8662 20.6107 58.7195 22.616C59.6155 24.5787 60.0422 26.904 59.9995 29.592C59.9995 30.232 59.9568 30.8293 59.8715 31.384C59.8288 31.896 59.7648 32.408 59.6795 32.92L57.3755 47H51.4235L52.4475 41.048H52.3195C50.8688 43.1387 49.0768 44.8027 46.9435 46.04C44.8528 47.2347 42.5915 47.832 40.1595 47.832ZM42.1435 42.776C44.3195 42.776 46.2822 42.2 48.0315 41.048C49.7808 39.896 51.1888 38.3387 52.2555 36.376C53.3648 34.4133 53.9622 32.2373 54.0475 29.848C54.0902 27.7147 53.6848 25.816 52.8315 24.152C52.0208 22.4453 50.8475 21.1013 49.3115 20.12C47.7755 19.1387 45.9408 18.648 43.8075 18.648C41.6742 18.648 39.7115 19.2453 37.9195 20.44C36.1275 21.592 34.6982 23.192 33.6315 25.24C32.5648 27.2453 32.0315 29.5067 32.0315 32.024C32.0315 34.1573 32.4582 36.0347 33.3115 37.656C34.1648 39.2773 35.3382 40.536 36.8315 41.432C38.3675 42.328 40.1382 42.776 42.1435 42.776ZM95.5505 14.36L92.6065 33.496C92.1372 36.44 91.1345 39 89.5985 41.176C88.1052 43.3093 86.1638 44.952 83.7745 46.104C81.4278 47.2133 78.7398 47.768 75.7105 47.768C72.8092 47.768 70.2918 47.192 68.1585 46.04C66.0678 44.8453 64.4465 43.2667 63.2945 41.304C62.1425 39.2987 61.5665 37.0587 61.5665 34.584C61.5665 34.1573 61.5878 33.7093 61.6305 33.24C61.7158 32.7707 61.7798 32.3227 61.8225 31.896L64.5745 14.36H70.4625L67.6465 32.216C67.6038 32.5573 67.5612 32.8987 67.5185 33.24C67.5185 33.5387 67.5185 33.8373 67.5185 34.136C67.5185 36.6533 68.3078 38.7227 69.8865 40.344C71.4652 41.9227 73.5985 42.712 76.2865 42.712C77.9078 42.712 79.4438 42.3493 80.8945 41.624C82.3878 40.856 83.6465 39.768 84.6705 38.36C85.6945 36.9093 86.3772 35.16 86.7185 33.112L89.6625 14.36H95.5505ZM103.543 47C100.898 47 98.9137 46.3387 97.591 45.016C96.2683 43.6933 95.607 41.88 95.607 39.576C95.607 38.8933 95.671 38.168 95.799 37.4L100.727 6.168H106.615L101.815 36.568C101.687 37.2933 101.623 37.912 101.623 38.424C101.623 39.448 101.9 40.3013 102.455 40.984C103.052 41.624 103.991 41.944 105.271 41.944H111.991L111.223 47H103.543ZM92.983 19.416L93.751 14.36H116.471L115.703 19.416H92.983ZM111.109 47L118.533 0.279999H124.421L121.541 18.2V18.456C123.205 16.7493 124.976 15.512 126.853 14.744C128.731 13.976 130.544 13.592 132.293 13.592C134.896 13.592 137.157 14.168 139.077 15.32C141.04 16.4293 142.533 17.9653 143.557 19.928C144.624 21.8907 145.157 24.1093 145.157 26.584C145.157 27.1387 145.115 27.8 145.029 28.568C144.944 29.2933 144.859 29.912 144.773 30.424L142.085 47H136.261L138.949 29.784C139.035 29.3147 139.099 28.8453 139.141 28.376C139.184 27.9067 139.205 27.4373 139.205 26.968C139.205 25.2613 138.864 23.7893 138.181 22.552C137.499 21.3147 136.517 20.3547 135.237 19.672C134 18.9893 132.507 18.648 130.757 18.648C129.093 18.648 127.493 19.032 125.957 19.8C124.464 20.5253 123.184 21.592 122.117 23C121.051 24.408 120.368 26.0933 120.069 28.056L117.061 47H111.109Z" fill="#2C2323"/>
</svg>
